%TF.GenerationSoftware,KiCad,Pcbnew,7.0.1*%
%TF.CreationDate,2023-07-19T22:53:03+03:00*%
%TF.ProjectId,korry-led-pcb,6b6f7272-792d-46c6-9564-2d7063622e6b,rev?*%
%TF.SameCoordinates,Original*%
%TF.FileFunction,Copper,L1,Top*%
%TF.FilePolarity,Positive*%
%FSLAX46Y46*%
G04 Gerber Fmt 4.6, Leading zero omitted, Abs format (unit mm)*
G04 Created by KiCad (PCBNEW 7.0.1) date 2023-07-19 22:53:03*
%MOMM*%
%LPD*%
G01*
G04 APERTURE LIST*
G04 Aperture macros list*
%AMRoundRect*
0 Rectangle with rounded corners*
0 $1 Rounding radius*
0 $2 $3 $4 $5 $6 $7 $8 $9 X,Y pos of 4 corners*
0 Add a 4 corners polygon primitive as box body*
4,1,4,$2,$3,$4,$5,$6,$7,$8,$9,$2,$3,0*
0 Add four circle primitives for the rounded corners*
1,1,$1+$1,$2,$3*
1,1,$1+$1,$4,$5*
1,1,$1+$1,$6,$7*
1,1,$1+$1,$8,$9*
0 Add four rect primitives between the rounded corners*
20,1,$1+$1,$2,$3,$4,$5,0*
20,1,$1+$1,$4,$5,$6,$7,0*
20,1,$1+$1,$6,$7,$8,$9,0*
20,1,$1+$1,$8,$9,$2,$3,0*%
G04 Aperture macros list end*
%TA.AperFunction,SMDPad,CuDef*%
%ADD10RoundRect,0.250000X-0.450000X0.325000X-0.450000X-0.325000X0.450000X-0.325000X0.450000X0.325000X0*%
%TD*%
%TA.AperFunction,SMDPad,CuDef*%
%ADD11RoundRect,0.250000X0.450000X-0.325000X0.450000X0.325000X-0.450000X0.325000X-0.450000X-0.325000X0*%
%TD*%
%TA.AperFunction,ViaPad*%
%ADD12C,1.200000*%
%TD*%
%TA.AperFunction,Conductor*%
%ADD13C,0.500000*%
%TD*%
G04 APERTURE END LIST*
D10*
%TO.P,D6,1,K*%
%TO.N,Net-(D1-K)*%
X114300000Y-113529000D03*
%TO.P,D6,2,A*%
%TO.N,Net-(D4-A)*%
X114300000Y-115579000D03*
%TD*%
%TO.P,D5,1,K*%
%TO.N,Net-(D1-K)*%
X110490000Y-113529000D03*
%TO.P,D5,2,A*%
%TO.N,Net-(D4-A)*%
X110490000Y-115579000D03*
%TD*%
%TO.P,D4,1,K*%
%TO.N,Net-(D1-K)*%
X106680000Y-113529000D03*
%TO.P,D4,2,A*%
%TO.N,Net-(D4-A)*%
X106680000Y-115579000D03*
%TD*%
D11*
%TO.P,D3,2,A*%
%TO.N,Net-(D1-A)*%
X114300000Y-105147000D03*
%TO.P,D3,1,K*%
%TO.N,Net-(D1-K)*%
X114300000Y-107197000D03*
%TD*%
%TO.P,D2,1,K*%
%TO.N,Net-(D1-K)*%
X110490000Y-107197000D03*
%TO.P,D2,2,A*%
%TO.N,Net-(D1-A)*%
X110490000Y-105147000D03*
%TD*%
%TO.P,D1,1,K*%
%TO.N,Net-(D1-K)*%
X106680000Y-107197000D03*
%TO.P,D1,2,A*%
%TO.N,Net-(D1-A)*%
X106680000Y-105147000D03*
%TD*%
D12*
%TO.N,Net-(D4-A)*%
X116205000Y-113030000D03*
%TO.N,Net-(D1-A)*%
X116205000Y-110490000D03*
%TO.N,Net-(D1-K)*%
X116205000Y-107950000D03*
%TD*%
D13*
%TO.N,Net-(D4-A)*%
X110490000Y-115579000D02*
X106680000Y-115579000D01*
X114300000Y-115579000D02*
X110490000Y-115579000D01*
X116205000Y-113030000D02*
X116205000Y-113674000D01*
X116205000Y-113674000D02*
X114300000Y-115579000D01*
%TO.N,Net-(D1-K)*%
X110490000Y-113529000D02*
X106680000Y-113529000D01*
X114300000Y-113529000D02*
X110490000Y-113529000D01*
X116205000Y-107950000D02*
X114046000Y-110109000D01*
X114046000Y-113275000D02*
X114300000Y-113529000D01*
X114046000Y-110109000D02*
X114046000Y-113275000D01*
X110490000Y-107070000D02*
X106680000Y-107070000D01*
X114300000Y-107070000D02*
X110490000Y-107070000D01*
X116205000Y-107950000D02*
X115180000Y-107950000D01*
X115180000Y-107950000D02*
X114300000Y-107070000D01*
%TO.N,Net-(D1-A)*%
X106680000Y-105020000D02*
X110490000Y-105020000D01*
X110490000Y-105020000D02*
X114300000Y-105020000D01*
X116205000Y-110490000D02*
X117355000Y-109340000D01*
X117355000Y-109340000D02*
X117355000Y-107195000D01*
X117355000Y-107195000D02*
X115180000Y-105020000D01*
X115180000Y-105020000D02*
X114300000Y-105020000D01*
%TD*%
M02*
