%TF.GenerationSoftware,KiCad,Pcbnew,7.0.1*%
%TF.CreationDate,2023-07-19T22:53:13+03:00*%
%TF.ProjectId,korry-led-pcb,6b6f7272-792d-46c6-9564-2d7063622e6b,rev?*%
%TF.SameCoordinates,Original*%
%TF.FileFunction,Legend,Top*%
%TF.FilePolarity,Positive*%
%FSLAX46Y46*%
G04 Gerber Fmt 4.6, Leading zero omitted, Abs format (unit mm)*
G04 Created by KiCad (PCBNEW 7.0.1) date 2023-07-19 22:53:13*
%MOMM*%
%LPD*%
G01*
G04 APERTURE LIST*
%ADD10C,0.150000*%
%ADD11C,0.120000*%
G04 APERTURE END LIST*
D10*
%TO.C,D6*%
X116412619Y-115292094D02*
X115412619Y-115292094D01*
X115412619Y-115292094D02*
X115412619Y-115053999D01*
X115412619Y-115053999D02*
X115460238Y-114911142D01*
X115460238Y-114911142D02*
X115555476Y-114815904D01*
X115555476Y-114815904D02*
X115650714Y-114768285D01*
X115650714Y-114768285D02*
X115841190Y-114720666D01*
X115841190Y-114720666D02*
X115984047Y-114720666D01*
X115984047Y-114720666D02*
X116174523Y-114768285D01*
X116174523Y-114768285D02*
X116269761Y-114815904D01*
X116269761Y-114815904D02*
X116365000Y-114911142D01*
X116365000Y-114911142D02*
X116412619Y-115053999D01*
X116412619Y-115053999D02*
X116412619Y-115292094D01*
X115412619Y-113863523D02*
X115412619Y-114053999D01*
X115412619Y-114053999D02*
X115460238Y-114149237D01*
X115460238Y-114149237D02*
X115507857Y-114196856D01*
X115507857Y-114196856D02*
X115650714Y-114292094D01*
X115650714Y-114292094D02*
X115841190Y-114339713D01*
X115841190Y-114339713D02*
X116222142Y-114339713D01*
X116222142Y-114339713D02*
X116317380Y-114292094D01*
X116317380Y-114292094D02*
X116365000Y-114244475D01*
X116365000Y-114244475D02*
X116412619Y-114149237D01*
X116412619Y-114149237D02*
X116412619Y-113958761D01*
X116412619Y-113958761D02*
X116365000Y-113863523D01*
X116365000Y-113863523D02*
X116317380Y-113815904D01*
X116317380Y-113815904D02*
X116222142Y-113768285D01*
X116222142Y-113768285D02*
X115984047Y-113768285D01*
X115984047Y-113768285D02*
X115888809Y-113815904D01*
X115888809Y-113815904D02*
X115841190Y-113863523D01*
X115841190Y-113863523D02*
X115793571Y-113958761D01*
X115793571Y-113958761D02*
X115793571Y-114149237D01*
X115793571Y-114149237D02*
X115841190Y-114244475D01*
X115841190Y-114244475D02*
X115888809Y-114292094D01*
X115888809Y-114292094D02*
X115984047Y-114339713D01*
%TO.C,D5*%
X112602619Y-115292094D02*
X111602619Y-115292094D01*
X111602619Y-115292094D02*
X111602619Y-115053999D01*
X111602619Y-115053999D02*
X111650238Y-114911142D01*
X111650238Y-114911142D02*
X111745476Y-114815904D01*
X111745476Y-114815904D02*
X111840714Y-114768285D01*
X111840714Y-114768285D02*
X112031190Y-114720666D01*
X112031190Y-114720666D02*
X112174047Y-114720666D01*
X112174047Y-114720666D02*
X112364523Y-114768285D01*
X112364523Y-114768285D02*
X112459761Y-114815904D01*
X112459761Y-114815904D02*
X112555000Y-114911142D01*
X112555000Y-114911142D02*
X112602619Y-115053999D01*
X112602619Y-115053999D02*
X112602619Y-115292094D01*
X111602619Y-113815904D02*
X111602619Y-114292094D01*
X111602619Y-114292094D02*
X112078809Y-114339713D01*
X112078809Y-114339713D02*
X112031190Y-114292094D01*
X112031190Y-114292094D02*
X111983571Y-114196856D01*
X111983571Y-114196856D02*
X111983571Y-113958761D01*
X111983571Y-113958761D02*
X112031190Y-113863523D01*
X112031190Y-113863523D02*
X112078809Y-113815904D01*
X112078809Y-113815904D02*
X112174047Y-113768285D01*
X112174047Y-113768285D02*
X112412142Y-113768285D01*
X112412142Y-113768285D02*
X112507380Y-113815904D01*
X112507380Y-113815904D02*
X112555000Y-113863523D01*
X112555000Y-113863523D02*
X112602619Y-113958761D01*
X112602619Y-113958761D02*
X112602619Y-114196856D01*
X112602619Y-114196856D02*
X112555000Y-114292094D01*
X112555000Y-114292094D02*
X112507380Y-114339713D01*
%TO.C,D4*%
X108792619Y-115292094D02*
X107792619Y-115292094D01*
X107792619Y-115292094D02*
X107792619Y-115053999D01*
X107792619Y-115053999D02*
X107840238Y-114911142D01*
X107840238Y-114911142D02*
X107935476Y-114815904D01*
X107935476Y-114815904D02*
X108030714Y-114768285D01*
X108030714Y-114768285D02*
X108221190Y-114720666D01*
X108221190Y-114720666D02*
X108364047Y-114720666D01*
X108364047Y-114720666D02*
X108554523Y-114768285D01*
X108554523Y-114768285D02*
X108649761Y-114815904D01*
X108649761Y-114815904D02*
X108745000Y-114911142D01*
X108745000Y-114911142D02*
X108792619Y-115053999D01*
X108792619Y-115053999D02*
X108792619Y-115292094D01*
X108125952Y-113863523D02*
X108792619Y-113863523D01*
X107745000Y-114101618D02*
X108459285Y-114339713D01*
X108459285Y-114339713D02*
X108459285Y-113720666D01*
%TO.C,D3*%
X113112619Y-106910094D02*
X112112619Y-106910094D01*
X112112619Y-106910094D02*
X112112619Y-106671999D01*
X112112619Y-106671999D02*
X112160238Y-106529142D01*
X112160238Y-106529142D02*
X112255476Y-106433904D01*
X112255476Y-106433904D02*
X112350714Y-106386285D01*
X112350714Y-106386285D02*
X112541190Y-106338666D01*
X112541190Y-106338666D02*
X112684047Y-106338666D01*
X112684047Y-106338666D02*
X112874523Y-106386285D01*
X112874523Y-106386285D02*
X112969761Y-106433904D01*
X112969761Y-106433904D02*
X113065000Y-106529142D01*
X113065000Y-106529142D02*
X113112619Y-106671999D01*
X113112619Y-106671999D02*
X113112619Y-106910094D01*
X112112619Y-106005332D02*
X112112619Y-105386285D01*
X112112619Y-105386285D02*
X112493571Y-105719618D01*
X112493571Y-105719618D02*
X112493571Y-105576761D01*
X112493571Y-105576761D02*
X112541190Y-105481523D01*
X112541190Y-105481523D02*
X112588809Y-105433904D01*
X112588809Y-105433904D02*
X112684047Y-105386285D01*
X112684047Y-105386285D02*
X112922142Y-105386285D01*
X112922142Y-105386285D02*
X113017380Y-105433904D01*
X113017380Y-105433904D02*
X113065000Y-105481523D01*
X113065000Y-105481523D02*
X113112619Y-105576761D01*
X113112619Y-105576761D02*
X113112619Y-105862475D01*
X113112619Y-105862475D02*
X113065000Y-105957713D01*
X113065000Y-105957713D02*
X113017380Y-106005332D01*
%TO.C,D2*%
X109302619Y-106910094D02*
X108302619Y-106910094D01*
X108302619Y-106910094D02*
X108302619Y-106671999D01*
X108302619Y-106671999D02*
X108350238Y-106529142D01*
X108350238Y-106529142D02*
X108445476Y-106433904D01*
X108445476Y-106433904D02*
X108540714Y-106386285D01*
X108540714Y-106386285D02*
X108731190Y-106338666D01*
X108731190Y-106338666D02*
X108874047Y-106338666D01*
X108874047Y-106338666D02*
X109064523Y-106386285D01*
X109064523Y-106386285D02*
X109159761Y-106433904D01*
X109159761Y-106433904D02*
X109255000Y-106529142D01*
X109255000Y-106529142D02*
X109302619Y-106671999D01*
X109302619Y-106671999D02*
X109302619Y-106910094D01*
X108397857Y-105957713D02*
X108350238Y-105910094D01*
X108350238Y-105910094D02*
X108302619Y-105814856D01*
X108302619Y-105814856D02*
X108302619Y-105576761D01*
X108302619Y-105576761D02*
X108350238Y-105481523D01*
X108350238Y-105481523D02*
X108397857Y-105433904D01*
X108397857Y-105433904D02*
X108493095Y-105386285D01*
X108493095Y-105386285D02*
X108588333Y-105386285D01*
X108588333Y-105386285D02*
X108731190Y-105433904D01*
X108731190Y-105433904D02*
X109302619Y-106005332D01*
X109302619Y-106005332D02*
X109302619Y-105386285D01*
%TO.C,D1*%
X105492619Y-106910094D02*
X104492619Y-106910094D01*
X104492619Y-106910094D02*
X104492619Y-106671999D01*
X104492619Y-106671999D02*
X104540238Y-106529142D01*
X104540238Y-106529142D02*
X104635476Y-106433904D01*
X104635476Y-106433904D02*
X104730714Y-106386285D01*
X104730714Y-106386285D02*
X104921190Y-106338666D01*
X104921190Y-106338666D02*
X105064047Y-106338666D01*
X105064047Y-106338666D02*
X105254523Y-106386285D01*
X105254523Y-106386285D02*
X105349761Y-106433904D01*
X105349761Y-106433904D02*
X105445000Y-106529142D01*
X105445000Y-106529142D02*
X105492619Y-106671999D01*
X105492619Y-106671999D02*
X105492619Y-106910094D01*
X105492619Y-105386285D02*
X105492619Y-105957713D01*
X105492619Y-105671999D02*
X104492619Y-105671999D01*
X104492619Y-105671999D02*
X104635476Y-105767237D01*
X104635476Y-105767237D02*
X104730714Y-105862475D01*
X104730714Y-105862475D02*
X104778333Y-105957713D01*
D11*
%TO.C,D6*%
X113340000Y-112694000D02*
X113340000Y-115554000D01*
X115260000Y-115554000D02*
X115260000Y-112694000D01*
X115260000Y-112694000D02*
X113340000Y-112694000D01*
%TO.C,D5*%
X109530000Y-112694000D02*
X109530000Y-115554000D01*
X111450000Y-115554000D02*
X111450000Y-112694000D01*
X111450000Y-112694000D02*
X109530000Y-112694000D01*
%TO.C,D4*%
X105720000Y-112694000D02*
X105720000Y-115554000D01*
X107640000Y-115554000D02*
X107640000Y-112694000D01*
X107640000Y-112694000D02*
X105720000Y-112694000D01*
%TO.C,D3*%
X113340000Y-108032000D02*
X115260000Y-108032000D01*
X113340000Y-105172000D02*
X113340000Y-108032000D01*
X115260000Y-108032000D02*
X115260000Y-105172000D01*
%TO.C,D2*%
X111450000Y-108032000D02*
X111450000Y-105172000D01*
X109530000Y-105172000D02*
X109530000Y-108032000D01*
X109530000Y-108032000D02*
X111450000Y-108032000D01*
%TO.C,D1*%
X107640000Y-108032000D02*
X107640000Y-105172000D01*
X105720000Y-105172000D02*
X105720000Y-108032000D01*
X105720000Y-108032000D02*
X107640000Y-108032000D01*
%TD*%
M02*
